<svg width="22" height="19" viewBox="0 0 22 19" fill="none" xmlns="http://www.w3.org/2000/svg">
<path d="M11 0.927246C6 0.927246 1.73 4.58351 0 9.7446C1.73 14.9057 6 18.5619 11 18.5619C16 18.5619 20.27 14.9057 22 9.7446C20.27 4.58351 16 0.927246 11 0.927246ZM11 15.6228C8.24 15.6228 6 12.9894 6 9.7446C6 6.49981 8.24 3.86636 11 3.86636C13.76 3.86636 16 6.49981 16 9.7446C16 12.9894 13.76 15.6228 11 15.6228ZM11 6.21766C9.34 6.21766 8 7.79302 8 9.7446C8 11.6962 9.34 13.2715 11 13.2715C12.66 13.2715 14 11.6962 14 9.7446C14 7.79302 12.66 6.21766 11 6.21766Z" fill="black" fill-opacity="0.54"/>
</svg>
